<svg xmlns="http://www.w3.org/2000/svg" viewBox="0 0 128 128">
  <rect width="128" height="128" rx="24" fill="#d13f96"/>
  <g fill="none" stroke="#fff" stroke-linecap="round" stroke-linejoin="round">
    <path d="M9 60c-8-11 9-21 16-7 8-14 25-4 16 8-6 9-16 16-16 16S15 69 9 60Z" stroke-width="5"/>
    <path d="M25 77c14 9 34 6 47-8" stroke-width="4"/>
    <circle cx="78" cy="61" r="32" stroke-width="7"/>
    <path d="M56 48c15-9 31-17 50-26M49 63c19-11 40-22 63-34M56 77c18-10 37-20 56-31M68 32c14 17 27 35 40 56M49 61c15 15 29 30 42 47" stroke-width="7"/>
    <path d="M54 100 116 25M116 25l8-3" stroke-width="6"/>
    <circle cx="116" cy="25" r="5" fill="#fff" stroke-width="2"/>
  </g>
</svg>
